<?xml version="1.0" encoding="UTF-8"?>
<!DOCTYPE svg PUBLIC "-//W3C//DTD SVG 1.1//EN" "http://www.w3.org/Graphics/SVG/1.1/DTD/svg11.dtd">
<!-- Creator: CorelDRAW 2019 (64-Bit) -->
<svg xmlns="http://www.w3.org/2000/svg" xml:space="preserve" width="249px" version="1.1" style="shape-rendering:geometricPrecision; text-rendering:geometricPrecision; image-rendering:optimizeQuality; fill-rule:evenodd; clip-rule:evenodd"
viewBox="0 0 8194 1697"
 xmlns:xlink="http://www.w3.org/1999/xlink">
 <defs>
  <style type="text/css">
   <![CDATA[
    .fil1 {fill:#FFF;fill-rule:nonzero}
    .fil0 {fill:#93C63C;fill-rule:nonzero}
    .fil2 {fill:url(#id0)}
   ]]>
  </style>
  <linearGradient id="id0" gradientUnits="userSpaceOnUse" x1="185" y1="834" x2="1571" y2="834">
   <stop offset="0" style="stop-opacity:1; stop-color:#329C46"/>
   <stop offset="1" style="stop-opacity:1; stop-color:#93C63C"/>
  </linearGradient>
 </defs>
 <g id="Layer_x0020_1">
  <metadata id="CorelCorpID_0Corel-Layer"/>
  <path class="fil0" d="M7218 750l264 0 0 117 -281 0c-51,0 -89,9 -116,28 -36,19 -63,55 -82,108 -4,18 -6,34 -6,47 0,45 17,88 51,128 22,21 43,36 63,43 22,10 51,15 88,15l283 0 0 117 -270 0c-69,0 -120,-8 -153,-25 -74,-32 -127,-85 -159,-159 -16,-37 -23,-76 -23,-118 0,-90 35,-166 107,-230 47,-35 89,-56 126,-62 19,-6 55,-9 108,-9zm-51 244l315 0 0 116 -315 0 0 -116z"/>
  <path class="fil0" d="M7930 750l264 0 0 117 -281 0c-51,0 -89,9 -115,28 -36,19 -63,55 -82,108 -4,18 -6,34 -6,47 0,45 17,88 51,128 22,21 43,36 63,43 21,10 51,15 88,15l283 0 0 117 -270 0c-69,0 -120,-8 -153,-25 -74,-32 -127,-85 -159,-159 -16,-37 -23,-76 -23,-118 0,-90 35,-166 107,-230 47,-35 89,-56 126,-62 19,-6 55,-9 108,-9zm-51 244l315 0 0 116 -315 0 0 -116z"/>
  <path class="fil1" d="M2309 389c-46,20 -95,55 -146,106 -44,45 -78,95 -103,150 -28,60 -43,145 -43,257l0 457 206 0 0 -421c0,-97 4,-157 13,-178 31,-85 78,-145 141,-179 44,-30 108,-45 192,-45l477 -1 0 -198 -533 1c-62,0 -130,17 -204,50z"/>
  <polygon class="fil1" points="2513,948 3046,948 3046,751 2513,751 "/>
  <path class="fil1" d="M4082 441c-66,-69 -157,-104 -273,-104l-657 0 0 197 652 0c89,0 172,48 172,146 -8,86 -65,145 -155,145l-670 0 0 533 201 0 0 -336 202 0c83,0 151,18 202,55 90,66 136,155 136,266l0 16 206 0c0,-151 -43,-272 -129,-364 34,-11 72,-37 113,-77 73,-80 97,-142 97,-248 0,-86 -37,-171 -99,-229z"/>
  <path class="fil1" d="M4806 338l-7 0c-35,0 -63,2 -85,7 -71,8 -150,42 -236,104 -127,110 -191,242 -191,396l0 7c0,54 9,110 28,167 16,45 43,95 82,150 111,128 245,192 401,192l7 0c114,0 219,-35 314,-106 131,-110 197,-243 197,-400l0 -7c0,-113 -36,-218 -108,-315 -111,-129 -245,-193 -402,-193zm292 602c-21,67 -60,122 -119,165 -57,37 -113,56 -167,56l-20 0c-68,0 -133,-27 -195,-80 -69,-67 -104,-145 -104,-234 0,-33 7,-68 20,-105 7,-27 26,-59 55,-97 69,-74 147,-111 236,-111 76,0 145,28 209,84 68,67 101,144 101,231 -3,43 -7,73 -14,90z"/>
  <path class="fil1" d="M5987 337c-102,0 -179,11 -230,33 -129,48 -224,134 -284,256 -34,72 -50,146 -50,223 0,77 17,151 50,223 61,122 156,208 284,255 51,22 128,33 230,33l180 0 0 -198 -205 0c-147,0 -250,-63 -308,-190 -18,-41 -28,-82 -28,-123 0,-41 9,-82 28,-123 58,-127 161,-190 308,-190l489 0 0 -199 -464 0z"/>
  <polygon class="fil1" points="5916,947 6249,947 6249,1359 6451,1359 6451,750 5916,750 "/>
  <polygon class="fil1" points="6771,1359 6592,1359 6592,1181 6771,1181 "/>
  <path class="fil2" d="M165 682c91,0 165,74 165,165 0,91 -74,165 -165,165 -91,0 -165,-74 -165,-165 0,-91 74,-165 165,-165zm1176 -262c52,80 -7,127 69,206 32,33 75,52 118,54 57,2 100,13 140,59 53,62 53,154 0,216 -40,46 -84,57 -140,59 -42,2 -86,20 -118,54 -82,86 -9,142 -82,227 -70,82 -103,48 -186,68 -25,6 -47,19 -71,45 -17,18 -33,47 -42,78 -10,36 -2,64 -15,102 -22,64 -84,111 -156,111 -45,0 -86,-18 -115,-47 -30,-30 -49,-72 -49,-118 0,-68 42,-129 104,-153 34,-14 71,-8 105,-17 36,-9 48,-12 78,-38 103,-87 -4,-221 156,-285 34,-14 71,-8 105,-17 36,-9 48,-12 78,-38 74,-62 74,-213 0,-275 -30,-26 -43,-29 -78,-38 -34,-9 -71,-3 -105,-17 -63,-25 -104,-85 -104,-153 0,-50 -10,-92 -52,-128 -70,-59 -120,-28 -183,-55 -63,-25 -104,-85 -104,-153 0,-46 19,-88 49,-118 30,-29 70,-47 115,-47 72,0 133,46 156,111 22,63 -4,115 57,179 46,48 70,47 127,47 61,0 115,34 143,84zm-331 425c1,39 -13,79 -40,111 -40,46 -84,57 -140,59 -42,2 -86,20 -118,54 -17,18 -33,47 -42,78 -10,36 -2,64 -15,102 -22,64 -84,111 -156,111 -45,0 -86,-18 -115,-47 -30,-30 -49,-72 -49,-118 0,-68 42,-129 104,-153 34,-14 71,-8 105,-17 36,-9 48,-12 78,-38 59,-50 66,-144 42,-213 -8,-23 -21,-43 -42,-61 -30,-26 -43,-29 -78,-38 -34,-9 -71,-3 -105,-17 -63,-25 -104,-85 -104,-153 0,-46 19,-88 49,-118 30,-29 70,-47 115,-47 72,0 133,46 156,111 13,38 5,65 15,102 9,30 25,60 42,78 32,33 75,52 118,54 99,4 178,60 180,165z"/>
 </g>
</svg>
